<?xml version="1.0" standalone="no"?>
<!DOCTYPE svg PUBLIC "-//W3C//DTD SVG 20010904//EN"
 "http://www.w3.org/TR/2001/REC-SVG-20010904/DTD/svg10.dtd">
<svg version="1.0" xmlns="http://www.w3.org/2000/svg"
 width="380.000000pt" height="380.000000pt" viewBox="0 0 380.000000 380.000000"
 preserveAspectRatio="xMidYMid meet">
<metadata>
Created by potrace 1.16, written by Peter Selinger 2001-2019
</metadata>
<g transform="translate(0.000000,380.000000) scale(0.100000,-0.100000)"
fill="#000000" stroke="none">
<path d="M950 2971 l0 -179 -32 16 c-35 17 -94 20 -170 8 -40 -6 -48 -11 -48
-28 0 -34 39 -105 67 -124 30 -19 152 -53 198 -55 20 0 3 -8 -50 -23 -137 -37
-206 -90 -235 -180 -34 -107 38 -278 139 -330 65 -34 153 -29 246 15 54 25 75
63 75 131 0 76 19 135 51 162 15 13 33 26 40 28 17 6 -27 92 -70 133 -20 20
-56 42 -80 49 l-43 12 46 18 c34 13 55 30 74 59 27 40 27 43 30 233 l4 192
-47 21 c-34 15 -68 21 -121 21 l-74 0 0 -179z m72 -577 c33 -59 45 -126 29
-160 -8 -19 -18 -24 -47 -24 -48 0 -89 44 -110 117 -18 60 -13 94 16 123 31
31 77 8 112 -56z"/>
<path d="M2013 2538 c-29 -14 -29 -30 2 -96 22 -49 25 -67 25 -179 0 -69 -5
-179 -11 -245 l-12 -119 34 -35 c40 -41 57 -42 91 -6 55 58 55 128 2 427 -19
106 -23 145 -15 163 15 31 14 75 -1 90 -15 15 -85 15 -115 0z"/>
<path d="M877 1994 c-15 -123 -30 -435 -21 -444 6 -6 45 -13 88 -17 75 -6 77
-7 52 -20 -18 -9 -25 -20 -22 -31 3 -9 8 -35 12 -57 l6 -40 -60 59 -61 59 -61
-12 c-34 -7 -86 -22 -117 -33 -45 -18 -54 -25 -50 -42 3 -12 24 -122 48 -246
24 -124 44 -227 46 -229 8 -12 143 24 181 47 l44 27 -6 49 -6 50 58 -57 57
-57 78 15 c79 15 152 56 144 79 -2 6 -24 112 -48 236 -24 124 -44 227 -46 229
-1 2 -30 -2 -64 -8 -35 -6 -64 -9 -66 -7 -2 2 4 110 13 240 9 130 13 240 10
244 -4 3 -51 8 -105 10 l-98 4 -6 -48z"/>
<path d="M488 973 c-10 -2 -18 -5 -18 -7 0 -1 -9 -64 -20 -141 -33 -234 -27
-280 47 -346 83 -75 295 -79 410 -8 41 25 80 90 89 147 7 47 7 46 35 31 12 -6
48 -16 82 -23 l62 -13 -45 -13 c-61 -17 -130 -58 -130 -78 0 -10 9 -32 20 -50
12 -19 16 -31 11 -28 -5 3 -11 -1 -15 -9 -8 -23 12 -29 113 -33 135 -6 185 8
281 78 43 33 86 73 95 89 20 40 19 116 -2 152 -20 34 -86 69 -129 69 -51 0
-47 12 13 36 31 13 60 27 65 32 15 15 -18 70 -55 93 -51 32 -159 23 -266 -24
-74 -32 -86 -34 -95 -21 -9 11 -40 17 -124 21 -62 3 -112 4 -112 2 -2 -46 -51
-344 -58 -351 -15 -15 -51 8 -58 39 -4 14 3 95 15 181 12 85 21 156 19 158
-15 15 -190 28 -230 17z"/>
<path d="M2391 675 c-2 -104 -66 -203 -157 -241 -48 -20 -62 -18 -139 20 -56
27 -72 32 -87 23 -28 -18 -22 -34 19 -53 41 -20 71 -21 313 -12 165 7 248 21
296 52 33 23 30 33 -13 45 -31 9 -38 8 -49 -8 -23 -33 -167 -72 -188 -51 -8 8
-6 14 4 20 19 11 27 177 12 230 -10 33 -10 32 -11 -25z"/>
</g>
</svg>
